<?xml version="1.0" encoding="UTF-8"?>
<!DOCTYPE svg PUBLIC "-//W3C//DTD SVG 1.1//EN" "http://www.w3.org/Graphics/SVG/1.1/DTD/svg11.dtd">
<!-- Creator: CorelDRAW 2020 (64-Bit) -->
<svg xmlns="http://www.w3.org/2000/svg" xml:space="preserve" width="6.13301in" height="2.82576in" version="1.1" style="shape-rendering:geometricPrecision; text-rendering:geometricPrecision; image-rendering:optimizeQuality; fill-rule:evenodd; clip-rule:evenodd"
viewBox="0 0 6067.12 2795.4"
 xmlns:xlink="http://www.w3.org/1999/xlink"
 xmlns:xodm="http://www.corel.com/coreldraw/odm/2003">
 <defs>
  <style type="text/css">
   <![CDATA[
    .fil0 {fill:#000A57}
    .fil1 {fill:#FF6200}
    .fil2 {fill:black;fill-rule:nonzero}
   ]]>
  </style>
 </defs>
 <g id="Layer_x0020_1">
  <metadata id="CorelCorpID_0Corel-Layer"/>
  <g id="_2613529075424">
   <path class="fil0" d="M238.47 1340.28c-6.09,-41.63 -33.58,-76.3 -70.92,-92.52l0 0c-0.82,-0.35 -1.63,-0.7 -2.44,-1.04l0 0c-1.65,-0.66 -3.31,-1.3 -4.99,-1.9l0 0c-0.85,-0.29 -1.69,-0.59 -2.53,-0.87l0 0c-0.84,-0.28 -1.7,-0.55 -2.56,-0.81l0 0c-1.71,-0.53 -3.43,-1.01 -5.18,-1.46l0 0c-0.87,-0.22 -1.73,-0.43 -2.63,-0.64l0 0c-0.88,-0.2 -1.76,-0.41 -2.64,-0.6l0 0c-0.88,-0.18 -1.78,-0.35 -2.68,-0.52l0 0c-0.88,-0.18 -1.78,-0.32 -2.68,-0.47 -0.91,-0.16 -1.8,-0.28 -2.71,-0.41l0 0c-0.91,-0.12 -1.83,-0.24 -2.73,-0.36 -0.92,-0.09 -1.84,-0.18 -2.76,-0.28 -0.91,-0.08 -1.84,-0.15 -2.76,-0.22l0 0c-0.93,-0.06 -1.86,-0.11 -2.78,-0.16 -0.94,-0.04 -1.88,-0.07 -2.81,-0.09 -0.94,-0.03 -1.88,-0.03 -2.82,-0.03 -0.93,0 -1.85,0 -2.78,0.03l-0.04 0 -0.08 0c-0.9,0.02 -1.8,0.05 -2.69,0.09l-0.05 0c-0.92,0.05 -1.83,0.1 -2.73,0.16l-0.06 0c-0.91,0.07 -1.81,0.14 -2.71,0.22l-0.04 0.01c-0.92,0.09 -1.83,0.18 -2.74,0.27l0 0.03c-0.91,0.09 -1.82,0.21 -2.73,0.33l-0.01 0c-0.88,0.13 -1.79,0.25 -2.67,0.41l-0.04 0 -0.07 0.01c-0.86,0.14 -1.71,0.31 -2.56,0.45l-0.09 0.01c-0.88,0.17 -1.74,0.34 -2.6,0.52l-0.05 0.02c-1.76,0.37 -3.49,0.76 -5.21,1.2l-0.04 0.02 -0.19 0.05c-0.74,0.19 -1.51,0.4 -2.26,0.6l-0.63 0.19c-0.57,0.16 -1.16,0.34 -1.74,0.51l-0.81 0.25c-0.55,0.18 -1.1,0.35 -1.63,0.53l-0.78 0.25c-0.61,0.2 -1.24,0.42 -1.85,0.63l-0.47 0.17c-0.81,0.28 -1.61,0.57 -2.39,0.88l-0.14 0.05c-0.73,0.28 -1.46,0.58 -2.17,0.86l-0.62 0.25c-0.57,0.23 -1.12,0.46 -1.68,0.72l-0.7 0.3c-0.56,0.25 -1.14,0.49 -1.69,0.76l-0.59 0.27c-0.65,0.29 -1.31,0.61 -1.96,0.93l-0.26 0.12c-1.53,0.73 -3.02,1.51 -4.5,2.32l-0.46 0.25c-0.59,0.31 -1.16,0.64 -1.74,0.96l-0.5 0.3c-0.6,0.34 -1.2,0.69 -1.8,1.05l-0.35 0.21c-1.45,0.88 -2.89,1.78 -4.32,2.74l-0.06 0.05c-0.67,0.44 -1.32,0.88 -1.98,1.33l-0.39 0.28c-0.56,0.38 -1.12,0.78 -1.67,1.19l-0.39 0.29c-0.62,0.45 -1.2,0.88 -1.8,1.34l-0.18 0.13c-2.03,1.56 -4.01,3.17 -5.94,4.84l-0.25 0.22c-0.57,0.51 -1.13,0.99 -1.66,1.49l-0.25 0.22c-2.54,2.31 -4.96,4.73 -7.3,7.26l-0.06 0.08c-0.58,0.61 -1.13,1.22 -1.67,1.85l-0.08 0.07c-15.01,17 -25.28,38.31 -28.72,61.81 -0.25,1.73 -0.47,3.46 -0.65,5.21l0 0.03c-0.1,1.01 -0.19,2.01 -0.27,3.02l0 0.02c-0.07,1 -0.14,2.01 -0.19,3.03l0 0.02 0 0.06c-0.06,1 -0.1,1.99 -0.11,2.97l0 0.04 0 0.04c-0.03,1.01 -0.04,2.03 -0.04,3.05l0 119.86 0 239.74 0 129.69 0 239.73 0 129.68 0 239.73 0 129.69 0 209.54 239.73 0 0 -209.54 0 -129.69 0 -239.73 0 -129.68 0 -239.73 0 -129.69 0 -239.74 0 -23.76 0 -95.83 0 -0.04 0 -0.04 0 -0.05 0 -0.04 0 -0.06 0 -0.04c0,-1.02 -0.01,-2.04 -0.04,-3.05l0 -0.04 0 -0.04c-0.03,-0.98 -0.06,-1.97 -0.11,-2.97l0 -0.06 0 -0.02c-0.05,-1.02 -0.13,-2.03 -0.2,-3.03l0 -0.02c-0.07,-1.01 -0.17,-2.01 -0.26,-3.02l-0.01 -0.03c-0.18,-1.75 -0.4,-3.48 -0.64,-5.21z"/>
   <path class="fil0" d="M1716.09 1340.28c-3.43,-23.5 -13.68,-44.8 -28.67,-61.79l-0.14 -0.14c-0.53,-0.6 -1.06,-1.2 -1.6,-1.78l-0.14 -0.16c-0.58,-0.6 -1.15,-1.21 -1.74,-1.83l0 0c-1.8,-1.86 -3.62,-3.65 -5.53,-5.38l-0.23 -0.22c-0.56,-0.5 -1.12,-0.98 -1.67,-1.49l-0.25 -0.22c-1.93,-1.67 -3.92,-3.28 -5.94,-4.84l-0.19 -0.13c-0.59,-0.46 -1.19,-0.89 -1.79,-1.34l-0.41 -0.29c-0.53,-0.41 -1.09,-0.81 -1.66,-1.19l-0.39 -0.28c-0.61,-0.43 -1.24,-0.84 -1.87,-1.26l-0.2 -0.14c-1.42,-0.94 -2.83,-1.84 -4.29,-2.72l-0.36 -0.21c-0.58,-0.36 -1.18,-0.71 -1.77,-1.05l-0.53 -0.3c-0.54,-0.31 -1.11,-0.61 -1.67,-0.93l-0.55 -0.3c-0.66,-0.35 -1.31,-0.71 -1.99,-1.06l-0.19 -0.1c-0.75,-0.38 -1.52,-0.76 -2.28,-1.14l-0.29 -0.14c-0.63,-0.3 -1.27,-0.61 -1.91,-0.9l-0.68 -0.32c-0.53,-0.24 -1.07,-0.49 -1.61,-0.72l-0.72 -0.3c-0.53,-0.24 -1.08,-0.47 -1.6,-0.69l-0.73 -0.3c-0.7,-0.28 -1.4,-0.56 -2.13,-0.83l-0.14 -0.06c-0.78,-0.31 -1.57,-0.59 -2.36,-0.87l-0.63 -0.21c-0.56,-0.21 -1.15,-0.4 -1.73,-0.6l-0.76 -0.25c-0.56,-0.19 -1.11,-0.35 -1.64,-0.53l-0.82 -0.25c-0.59,-0.17 -1.15,-0.35 -1.74,-0.51l-0.63 -0.19c-0.76,-0.2 -1.5,-0.41 -2.26,-0.6l-0.18 -0.05 -0.05 -0.02c-1.73,-0.44 -3.45,-0.83 -5.19,-1.2l-0.06 -0.02c-0.87,-0.18 -1.74,-0.35 -2.61,-0.52l-0.07 -0.01c-0.86,-0.14 -1.71,-0.3 -2.57,-0.45l-0.09 -0.01 -0.04 0c-0.88,-0.16 -1.76,-0.28 -2.66,-0.41l-0.02 0c-0.89,-0.12 -1.8,-0.24 -2.7,-0.33l-0.03 -0.03c-0.91,-0.09 -1.8,-0.18 -2.71,-0.27l-0.06 -0.01c-0.89,-0.08 -1.8,-0.15 -2.71,-0.22l-0.06 0c-0.91,-0.06 -1.81,-0.11 -2.73,-0.16l-0.05 0c-0.9,-0.04 -1.79,-0.07 -2.68,-0.09l-0.09 0 -0.03 0c-0.93,-0.03 -1.86,-0.03 -2.79,-0.03 -0.95,0 -1.88,0 -2.81,0.03 -0.95,0.02 -1.88,0.05 -2.81,0.09 -0.93,0.05 -1.85,0.1 -2.78,0.16l0 0c-0.92,0.07 -1.84,0.14 -2.78,0.22 -0.91,0.1 -1.82,0.19 -2.74,0.28 -0.92,0.12 -1.83,0.24 -2.73,0.36l-0.01 0c-0.9,0.13 -1.8,0.25 -2.7,0.41 -0.9,0.15 -1.8,0.29 -2.69,0.47l0 0c-0.9,0.17 -1.79,0.34 -2.68,0.52l0 0c-0.88,0.19 -1.76,0.4 -2.65,0.6l0 0c-0.86,0.21 -1.76,0.42 -2.63,0.64l0 0c-0.86,0.23 -1.73,0.46 -2.6,0.7l0 0c-0.86,0.25 -1.72,0.49 -2.58,0.76l0 0c-0.85,0.26 -1.7,0.53 -2.55,0.81l0 0c-3.39,1.13 -6.72,2.4 -9.95,3.81l0 0c-37.34,16.21 -64.82,50.88 -70.92,92.52 -0.25,1.73 -0.46,3.46 -0.64,5.21l0 0.03c-0.1,1.01 -0.18,2.01 -0.27,3.02l0 0.02c-0.08,1 -0.15,2.01 -0.19,3.03l0 0.02 -0.01 0.06c-0.04,1 -0.08,1.99 -0.11,2.97l0 0.04 0 0.04c-0.02,1.01 -0.05,2.03 -0.05,3.05l0 0.04 0 0.06 0 0.04 0 0.05 0 0.04 0 0.04 0 9.04 0 64.48 0 46.07 0 239.74 0 129.69 0 239.73 0 129.68 0 239.73 0 129.69 0 209.54 239.75 0 0 -209.54 0 -129.69 0 -239.73 0 -129.68 0 -239.73 0 -129.69 0 -239.74 0 -119.86 0 -0.05 0 -0.04 0 -0.06 0 -0.04 0 -0.05 0 -0.04 0 0 0 -0.05 0 -0.05 0 -0.05 0 -0.04 -0.01 -0.05 0 -0.04 0 -0.01 0 -0.05 0 -0.04 0 -0.05 0 -0.07 0 -0.03 0 -0.03 0 -0.03 0 -0.03 0 -0.06 0 -0.05 0 -0.05 0 -0.04 0 -0.01 0 -0.04 0 -0.05 0 -0.05 0 -0.04 0 -0.05 0 -0.04 0 -0.01 0 -0.05 0 -0.04 0 -0.05 0 -0.04 0 -0.06 0 -0.04 0 0 0 -0.05 0 -0.04 0 -0.05 0 -0.05 -0.02 -0.05 0 -0.03 0 -0.01 0 -0.05 0 -0.05 0 -0.05 0 -0.06 0 -0.03 0 -0.03 0 -0.04 0 -0.04 0 -0.05 0 -0.03 0 -0.06 0 -0.05 0 -0.01 0 -0.04 0 -0.04 -0.01 -0.05 0 -0.05 0 -0.05 0 -0.04 0 -0.01 0 -0.04 0 -0.04 0 -0.06 0 -0.04 0 -0.05 0 -0.04 0 -0.04 0 -0.04 0 -0.03 -0.01 -0.05 0 -0.04 0 -0.04 0 -0.05 0 -0.02 0 -0.03 0 -0.05 0 -0.04 0 -0.07 0 -0.03 0 -0.03 0 -0.01 0 -0.05 -0.02 -0.04 0 -0.07 0 -0.03 0 -0.06 0 -0.01 0 -0.16 0 -0.06 -0.01 -0.03 0 -0.04 0 -0.03 0 -0.04 0 -0.03 0 -0.06 0 -0.05 0 -0.06 0 -0.03 -0.01 -0.05 0 -0.09 0 -0.05 0 -0.04 0 -0.01 0 -0.04 0 -0.05 0 -0.04 -0.01 -0.05 0 -0.04 0 -0.05 0 -0.01 0 -0.04 0 -0.05 0 -0.04 0 -0.04 -0.02 -0.05 0 -0.05 0 -0.01 0 -0.04 0 -0.04 0 -0.03 0 -0.07 -0.01 -0.04 0 -0.05 0 0 0 -0.04 0 -0.05 0 -0.05 0 -0.04 0 -0.05 -0.01 -0.04 0 0 0 -0.06 0 -0.04 0 -0.04 0 -0.05 0 -0.04 -0.03 -0.06 0 -0.06 0 -0.02 0 -0.05 0 -0.04 -0.01 -0.06 0 -0.04 0 0 0 -0.05 0 -0.04 0 -0.06 0 -0.04 -0.01 -0.05 0 -0.03 0 -0.01 0 -0.06 0 -0.04 0 -0.05 -0.02 -0.04 0 -0.05 0 -0.01 0 -0.04 0 -0.05 0 -0.04 -0.01 -0.05 0 -0.05 0 -0.06 0 -0.01 0 -0.02 0 -0.05 -0.01 -0.04 0 -0.07 0 -0.03 0 -0.06 0 0 -0.01 -0.03 0 -0.07 0 -0.04 0 -0.05 0 -0.04 -0.02 -0.03 0 -0.02 0 -0.05 0 -0.05 0 -0.04 0 -0.05 -0.01 -0.05 0 -0.02 0 -0.03 0 -0.04 0 -0.05 -0.01 -0.04 0 -0.06 0 -0.04 0 -0.01 0 -0.03 -0.02 -0.05 0 -0.05 0 -0.05 0 -0.04 -0.01 -0.05 0 -0.01 0 -0.03 0 -0.06 0 -0.04 -0.01 -0.05 0 -0.04 0 -0.06 0 0 0 -0.04 -0.01 -0.05 0 -0.04 0 -0.05 0 -0.05 -0.02 -0.04 0 -0.02 0 -0.03 0 -0.05 0 -0.02 0 -0.05 -0.01 -0.05 0 -0.04 0 -0.01 0 -0.04 -0.02 -0.05 0 -0.05 0 -0.04 0 -0.05 -0.02 -0.04 0 0 0 -0.06 0 -0.04 -0.01 -0.05 0 -0.04 0 -0.06 0 -0.03 0 -0.01 -0.01 -0.05 0 -0.04 0 -0.04 0 -0.06 -0.02 -0.04 0 -0.03 0 -0.02 0 -0.04 -0.01 -0.07 0 -0.03 0 -0.05 -0.01 -0.04 0 -0.02 0 -0.03 0 -0.06 0 -0.05 -0.01 -0.03 0 -0.06 0 -0.05 0 0 -0.02 -0.05 0 -0.04 0 -0.03 -0.01 -0.06 0 -0.05 0 -0.04 0 -0.01 -0.01 -0.04 0 -0.05 0 -0.05 -0.01 -0.05 0 -0.04 0 -0.02 0 -0.03 -0.02 -0.04 0 -0.05 0 -0.05 0 -0.04 -0.01 -0.05 0 -0.01 0 -0.04 0 -0.05 -0.01 -0.04 0 -0.05 0 -0.04 -0.03 -0.06 0 0 0 -0.04 -0.01 -0.05 0 -0.04 0 -0.05 -0.01 -0.05 0 -0.04 0 0 0 -0.05 -0.02 -0.04 0 -0.06 0 -0.03 -0.01 -0.08 0 -0.01 0 -0.07 -0.01 -0.08 -0.02 -0.08 0 -0.05 0 -0.04 -0.01 -0.07 -0.01 -0.08 0 -0.08 0 -0.01 -0.01 -0.08 0 -0.09 -0.02 -0.07 0 -0.02 -0.01 -0.06 0 -0.09 -0.01 -0.08 0 -0.03 -0.01 -0.05 0 -0.08 -0.02 -0.08 -0.01 -0.07 0 -0.02 -0.03 -0.07 0 -0.08 -0.01 -0.09 0 -0.01 -0.01 -0.07 0 -0.09 -0.01 -0.07 0 -0.04 -0.02 -0.04 0 -0.09 -0.01 -0.09 -0.01 -0.05 0 -0.04 -0.02 -0.07 0 -0.08 -0.01 -0.09 0 0 -0.01 -0.08 -0.01 -0.09 0 -0.07 -0.02 -0.01 0 -0.07 -0.01 -0.09 -0.01 -0.07 0 -0.04 0 -0.04 -0.01 -0.09 -0.02 -0.08 -0.02 -0.07 0 -0.02 -0.02 -0.07 0 -0.08 -0.01 -0.09 0 -0.01 -0.01 -0.07 -0.01 -0.09 -0.02 -0.07 0 -0.04 0 -0.04 -0.01 -0.09 -0.01 -0.07 -0.01 -0.06 0 -0.02 -0.02 -0.09 0 -0.08 -0.01 -0.09 0 0 -0.01 -0.07 -0.02 -0.08 -0.01 -0.09 0 -0.02 -0.01 -0.06 0 -0.08 -0.03 -0.08 -0.01 -0.05 0 -0.03 -0.01 -0.07 -0.02 -0.08 -0.01 -0.08zm-238.47 17.58l0 -0.06 0 -0.04 0 0.1z"/>
   <path class="fil1" d="M9.41 731.13l230.32 0 13.16 0c9.48,-45.24 23.89,-88.66 42.66,-129.68 19.94,-43.59 44.8,-84.46 73.86,-121.91 34.54,-44.51 75.02,-84.18 120.25,-117.82 36.88,-27.43 76.92,-50.86 119.48,-69.63 41.08,-18.12 84.5,-31.9 129.67,-40.77 38.78,-7.61 78.86,-11.59 119.87,-11.59 41.01,0 81.09,3.99 119.87,11.59 45.18,8.87 88.6,22.65 129.67,40.77 42.55,18.77 82.6,42.2 119.48,69.63 45.23,33.64 85.71,73.31 120.25,117.82 29.06,37.45 53.91,78.32 73.86,121.91 18.76,41.02 33.18,84.44 42.66,129.68l13.16 0 230.32 0c-6.61,-44.43 -16.63,-87.74 -29.78,-129.68 -27.16,-86.62 -67.68,-167.34 -119.15,-239.73 -24.7,-34.74 -51.92,-67.57 -81.39,-98.22 -10.35,-10.76 -20.98,-21.25 -31.87,-31.46 -30.59,-28.67 -63.27,-55.12 -97.81,-79.11 -72.56,-50.4 -153.26,-89.89 -239.73,-116.12 -41.96,-12.72 -85.27,-22.32 -129.67,-28.52 -39.17,-5.47 -79.19,-8.3 -119.87,-8.3 -40.68,0 -80.69,2.83 -119.87,8.3 -44.4,6.2 -87.72,15.8 -129.67,28.52 -86.47,26.22 -167.17,65.72 -239.73,116.12 -34.53,23.98 -67.22,50.44 -97.81,79.11 -10.89,10.21 -21.52,20.7 -31.87,31.46 -29.47,30.64 -56.7,63.47 -81.39,98.22 -51.46,72.39 -91.99,153.11 -119.15,239.73 -13.15,41.93 -23.17,85.25 -29.78,129.68z"/>
   <path class="fil0" d="M978.16 970.86c-3.52,-43.32 -30.05,-80.14 -67.37,-98.17l0 0c-1.66,-0.81 -3.35,-1.56 -5.05,-2.3l0 0c-0.84,-0.36 -1.69,-0.71 -2.56,-1.06l0 0c-0.86,-0.33 -1.73,-0.68 -2.59,-0.99l0 0c-0.87,-0.34 -1.74,-0.64 -2.63,-0.95l0 0c-0.88,-0.31 -1.77,-0.61 -2.65,-0.89l0 0c-0.88,-0.27 -1.78,-0.56 -2.68,-0.82l0 0c-0.89,-0.27 -1.8,-0.51 -2.69,-0.75l0 0c-0.92,-0.26 -1.83,-0.49 -2.73,-0.72l0 0c-0.93,-0.21 -1.84,-0.43 -2.76,-0.64 -0.93,-0.2 -1.85,-0.39 -2.78,-0.57 -0.94,-0.17 -1.87,-0.35 -2.81,-0.51 -0.93,-0.15 -1.88,-0.29 -2.82,-0.44 -0.94,-0.14 -1.89,-0.26 -2.84,-0.38 -0.95,-0.11 -1.91,-0.22 -2.87,-0.3 -0.96,-0.11 -1.93,-0.18 -2.9,-0.25l0 0c-0.96,-0.07 -1.93,-0.13 -2.9,-0.18 -0.97,-0.03 -1.94,-0.09 -2.92,-0.11 -0.98,-0.01 -1.95,-0.03 -2.94,-0.03 -0.99,0 -1.96,0.02 -2.94,0.03 -0.98,0.02 -1.96,0.08 -2.93,0.11 -0.97,0.05 -1.94,0.11 -2.9,0.18l0 0c-0.97,0.07 -1.92,0.14 -2.88,0.25 -0.96,0.08 -1.92,0.19 -2.86,0.3 -0.96,0.12 -1.9,0.24 -2.86,0.38 -0.93,0.15 -1.89,0.29 -2.82,0.44 -0.95,0.16 -1.88,0.33 -2.8,0.51 -0.93,0.18 -1.86,0.37 -2.78,0.57 -0.92,0.21 -1.84,0.43 -2.75,0.64l0 0c-0.93,0.23 -1.83,0.46 -2.73,0.72l0 0c-0.92,0.24 -1.81,0.48 -2.7,0.75l-0.02 0c-0.89,0.26 -1.77,0.54 -2.68,0.82l0 0c-0.88,0.28 -1.76,0.58 -2.64,0.89l0 0c-0.88,0.31 -1.75,0.61 -2.63,0.95l0 0c-0.87,0.31 -1.74,0.66 -2.59,0.99l0 0c-0.86,0.35 -1.71,0.7 -2.57,1.06l0 0c-1.7,0.74 -3.38,1.49 -5.04,2.3l0 0c-37.32,18.03 -63.85,54.85 -67.35,98.17l-0.41 0 0 9.8 0 119.88 0 239.74 0 137.34 0 239.74 0 129.69 0 239.73 0 129.68 0 239.73 0 129.69 0 209.54 239.73 0 0 -209.54 0 -129.69 0 -239.73 0 -129.68 0 -239.73 0 -129.69 0 -239.74 0 -137.34 0 -239.74 0 -119.88 0 -9.8 -0.38 0z"/>
  </g>
  <path class="fil2" d="M2410.91 797.82l-101.63 0 0 -511.61 -190.35 0 0 -91.3 483.19 0 0 91.3 -191.21 0 0 511.61zm715.74 0l-99.05 0 0 -257.53c0,-31.58 -8.9,-57.99 -26.7,-79.24 -17.8,-21.25 -45.65,-31.87 -83.55,-31.87 -44.79,4.59 -77.8,20.1 -99.05,46.51 -21.25,26.41 -31.87,58.57 -31.87,96.47l0 225.66 -99.05 0 0 -639.08 99.05 0 0 270.45c31.58,-62.02 88.14,-93.02 169.68,-93.02 57.99,0 100.92,16.79 128.76,50.39 27.85,33.59 41.77,75.65 41.77,126.18l0 285.09zm324.71 3.45c-51.68,0 -94.89,-10.48 -129.63,-31.44 -34.74,-20.96 -60.86,-48.95 -78.38,-83.98 -17.51,-35.03 -26.27,-73.79 -26.27,-116.28 0,-50.53 10.19,-92.88 30.58,-127.04 22.97,-36.46 51.96,-63.16 86.85,-80.1 34.88,-16.94 72.92,-25.7 114.26,-26.27 144.12,0 216.19,78.09 216.19,234.27l-1.72 36.18 -346.24 0c10.91,40.48 29.14,69.62 54.55,87.56 25.41,17.94 54.55,26.99 87.56,26.99 49.38,0 92.44,-17.8 129.2,-53.4l52.54 55.98c-47.66,51.68 -110.82,77.52 -189.49,77.52zm125.75 -267.01c-4.02,-40.77 -17.65,-70.77 -40.91,-90 -23.26,-19.24 -52.11,-28.86 -86.56,-28.86 -40.2,0 -71.49,11.05 -93.88,33.16 -22.39,22.11 -35.89,50.67 -40.48,85.7l261.83 0zm-863.89 1177.5l-99.91 0 -321.26 -434.1 0 434.1 -101.64 0 0 -602.91 99.91 0 322.99 435.82 0 -435.82 99.91 0 0 602.91zm344.52 3.45c-51.68,0 -94.89,-10.48 -129.63,-31.44 -34.74,-20.96 -60.86,-48.95 -78.38,-83.98 -17.51,-35.03 -26.27,-73.79 -26.27,-116.28 0,-50.53 10.19,-92.88 30.58,-127.04 22.97,-36.46 51.96,-63.16 86.85,-80.1 34.88,-16.94 72.92,-25.7 114.26,-26.27 144.12,0 216.19,78.09 216.19,234.27l-1.72 36.18 -346.24 0c10.91,40.48 29.14,69.62 54.55,87.56 25.41,17.94 54.55,26.99 87.56,26.99 49.38,0 92.44,-17.8 129.2,-53.4l52.54 55.98c-47.66,51.68 -110.82,77.52 -189.49,77.52zm125.75 -267.01c-4.02,-40.77 -17.65,-70.77 -40.91,-90 -23.26,-19.24 -52.11,-28.86 -86.56,-28.86 -40.2,0 -71.49,11.05 -93.88,33.16 -22.39,22.11 -35.89,50.67 -40.48,85.7l261.83 0zm318.68 267.01c-71.2,0 -132.64,-21.25 -184.32,-63.74l35.31 -70.63c48.23,37.9 99.34,56.84 153.31,56.84 49.96,0 74.93,-16.36 74.93,-49.09 0,-16.37 -7.47,-29.86 -22.39,-40.48 -14.93,-10.62 -39.19,-20.1 -72.78,-28.42 -33.59,-8.04 -65.75,-21.53 -96.46,-40.48 -30.72,-18.95 -46.94,-51.39 -48.66,-97.33 0,-31.01 7.75,-56.27 23.26,-75.8 32.15,-37.9 80.68,-56.84 145.56,-56.84 57.42,0 110.82,15.5 160.2,46.51l-36.17 73.21c-47.66,-26.99 -91.59,-40.48 -131.78,-40.48 -44.79,0 -67.18,15.22 -67.18,45.65 0,14.93 7.18,27.13 21.53,36.75 14.35,9.62 37.61,18.09 69.76,25.27 37.9,9.76 72.21,24.26 102.93,43.5 30.72,19.24 46.94,52.4 48.66,99.48 0,31.01 -7.89,56.56 -23.83,76.66 -15.93,20.1 -37.18,35.03 -63.74,44.79 -26.56,9.76 -55.99,14.64 -88.14,14.64zm422.04 0.86c-36.17,0 -66.61,-10.34 -91.3,-31.01 -24.69,-20.67 -37.04,-54.83 -37.04,-102.49l0 -237.72 -64.59 0 0 -74.07 64.59 0 0 -125.75 98.19 0 0 125.75 135.22 0 0 74.07 -135.22 0 0 219.63c0,41.34 15.22,62.02 45.65,62.02 22.97,0 47.08,-6.61 72.35,-19.81l24.98 75.8c-36.17,22.39 -73.78,33.59 -112.83,33.59zm310.07 0c-29.86,0 -56.27,-10.77 -79.24,-32.3 -22.97,-21.53 -34.45,-55.27 -34.45,-101.2l0 -509.89 98.19 0 0 499.55c0,35.6 14.07,53.4 42.2,53.4 13.78,0 29,-4.88 45.65,-14.64l13.78 80.96c-29.86,16.08 -58.57,24.12 -86.13,24.12zm209.3 -533.15c-14.64,0 -27.85,-5.31 -39.77,-15.79 -11.91,-10.48 -17.94,-25.27 -17.94,-44.5 0,-20.38 5.88,-35.6 17.65,-45.51 11.77,-9.9 25.12,-14.78 40.05,-14.78 14.93,0 28.28,4.88 40.05,14.78 11.77,9.9 17.66,25.12 17.66,45.51 0,16.37 -5.17,30.43 -15.5,42.35 -10.34,11.91 -24.4,17.94 -42.2,17.94zm49.09 528.84l-98.19 0 0 -458.21 98.19 0 0 458.21zm584.82 0l-99.05 0 0 -257.53c0,-31.58 -8.9,-57.99 -26.7,-79.24 -17.8,-21.25 -45.65,-31.87 -83.55,-31.87 -41.91,3.44 -73.5,16.51 -94.74,39.19 -21.25,22.68 -33.02,51.25 -35.31,85.7l0 243.75 -99.05 0 0 -458.21 99.05 0 0 87.85c31.58,-60.86 87.85,-91.3 168.82,-91.3 57.99,0 100.92,16.79 128.76,50.39 27.85,33.59 41.77,75.65 41.77,126.18l0 285.09zm309.21 169.68c-67.76,0 -131.21,-20.1 -190.35,-60.29l42.2 -71.49c43.64,33.3 91.58,49.96 143.84,49.96 40.77,0 74.93,-11.05 102.5,-33.16 27.56,-22.11 41.34,-54.41 41.34,-96.9l0 -57.71c-31.58,51.68 -82.11,77.52 -151.59,77.52 -44.79,0 -82.54,-9.9 -113.26,-29.57 -30.72,-19.67 -53.97,-46.23 -69.76,-79.67 -15.79,-33.45 -23.69,-70.77 -23.69,-112.11 0,-68.91 18.66,-121.87 55.99,-158.91 37.32,-37.03 86.42,-56.7 147.28,-59 71.77,1.15 123.45,26.99 155.03,77.52l0 -74.07 98.19 0 0 413.42c0,47.66 -10.48,87.28 -31.58,119 -21.1,31.73 -49.67,55.55 -85.56,71.49 -35.89,15.93 -76.08,23.97 -120.58,23.97zm7.75 -269.59c41.91,0 74.36,-13.64 97.32,-40.91 22.97,-27.27 34.45,-60.72 34.45,-100.34 0,-38.47 -11.63,-71.49 -34.88,-99.05 -23.26,-27.56 -55.55,-41.34 -96.89,-41.34 -41.92,0 -74.22,13.21 -96.9,39.62 -22.68,26.41 -34.88,60.01 -36.61,100.77 1.15,41.34 12.63,75.22 34.45,101.63 21.82,26.41 54.83,39.62 99.05,39.62zm496.97 103.36c-71.2,0 -132.64,-21.25 -184.32,-63.74l35.31 -70.63c48.23,37.9 99.34,56.84 153.31,56.84 49.96,0 74.93,-16.36 74.93,-49.09 0,-16.37 -7.47,-29.86 -22.39,-40.48 -14.93,-10.62 -39.19,-20.1 -72.78,-28.42 -33.59,-8.04 -65.75,-21.53 -96.46,-40.48 -30.72,-18.95 -46.94,-51.39 -48.66,-97.33 0,-31.01 7.75,-56.27 23.26,-75.8 32.15,-37.9 80.68,-56.84 145.56,-56.84 57.42,0 110.82,15.5 160.2,46.51l-36.17 73.21c-47.66,-26.99 -91.59,-40.48 -131.78,-40.48 -44.79,0 -67.18,15.22 -67.18,45.65 0,14.93 7.18,27.13 21.53,36.75 14.35,9.62 37.61,18.09 69.76,25.27 37.9,9.76 72.21,24.26 102.93,43.5 30.72,19.24 46.94,52.4 48.66,99.48 0,31.01 -7.89,56.56 -23.83,76.66 -15.93,20.1 -37.18,35.03 -63.74,44.79 -26.56,9.76 -55.99,14.64 -88.14,14.64zm-3620.04 910.5l-68.91 0 0 -602.91 226.52 0c42.2,0 81.25,6.75 117.14,20.24 35.89,13.49 64.88,35.46 86.99,65.89 20.67,29.86 31.01,68.62 31.01,116.28 0,38.47 -7.75,73.5 -23.26,105.22 -15.5,31.72 -40.91,57.28 -76.23,76.51 -34.45,18.38 -79.67,27.56 -135.65,27.56l-157.62 0 0 191.21zm155.03 -254.94c50.53,0 91.73,-11.2 123.6,-33.59 31.87,-22.39 47.8,-59.14 47.8,-110.25 0,-33.59 -7.17,-60.72 -21.53,-81.25 -14.36,-20.53 -34.6,-35.46 -60.72,-44.93 -26.13,-9.48 -55.84,-14.21 -89.15,-14.21l-155.03 0 0 284.23 155.03 0zm428.93 257.53c-24.12,0 -45.79,-8.47 -65.03,-25.41 -19.24,-16.94 -28.85,-45.51 -28.85,-85.7l0 -530.56 66.32 0 0 522.81c0,37.9 14.36,56.85 43.06,56.85 16.08,0 32.15,-6.32 48.23,-18.95l12.92 54.26c-25.26,17.8 -50.81,26.7 -76.66,26.7zm279.06 0c-35.31,0 -64.17,-6.31 -86.7,-18.95 -22.53,-12.63 -39.47,-29.43 -50.67,-50.39 -11.2,-20.96 -16.8,-43.5 -16.8,-67.61 0,-36.17 13.64,-66.32 40.91,-90.44 27.27,-24.12 70.19,-37.32 128.76,-39.62l149 0 0 -28.42c0,-31.58 -9.62,-57.28 -28.85,-77.08 -19.24,-19.81 -50.1,-29.72 -92.59,-29.72 -50.53,0 -98.48,17.51 -143.84,52.54l-28.42 -47.37c58.56,-40.77 120.29,-61.15 185.18,-61.15 61.44,0 105.94,14.36 133.5,43.06 27.56,28.71 41.34,66.32 41.34,112.83l0.86 299.73 -65.46 0 0 -70.63c-38.47,48.81 -93.88,73.21 -166.23,73.21zm12.92 -55.98c35.6,0 67.04,-8.18 94.31,-24.55 27.27,-16.36 46.65,-42.35 58.14,-77.94l0 -55.13 -141.25 0c-75.8,0 -114.27,24.69 -115.42,74.07 0,22.97 8.76,42.64 26.27,59 17.51,16.37 43.5,24.55 77.95,24.55zm372.94 223.08c-37.32,0 -69.19,-10.91 -95.6,-32.73l28.42 -53.4c19.52,14.36 40.77,21.53 63.74,21.53 35.6,0 63.16,-21.82 82.68,-65.46l18.95 -43.07 -187.76 -449.6 70.63 0 150.73 377.25 143.84 -377.25 68.91 0 -208.44 517.64c-30.43,70.05 -75.79,105.08 -136.09,105.08zm671.81 -167.09c-80.39,0 -139.24,-33.3 -176.57,-99.91l0 97.32 -67.18 0 0 -639.08 67.18 0 0 283.37c37.32,-66.61 95.6,-99.91 174.85,-99.91 64.31,0 116.71,21.39 157.19,64.17 40.48,42.78 60.72,98.05 60.72,165.8 0,30.72 -4.45,59.86 -13.5,87.42 -9.04,27.56 -22.54,51.82 -40.48,72.92 -17.94,21.1 -40.48,37.75 -67.47,49.81 -26.99,12.06 -58.57,18.09 -94.74,18.09zm-13.78 -59.43c36.17,0 66.32,-8.18 90.44,-24.54 24.69,-17.23 42.78,-38.9 54.26,-65.03 11.49,-26.13 17.23,-53.11 17.23,-80.96 0,-21.53 -3.16,-42.49 -9.48,-62.87 -6.31,-20.38 -16.08,-38.62 -29.28,-54.69 -13.2,-16.08 -30,-29 -50.39,-38.62 -20.38,-9.62 -44.64,-14.35 -72.78,-14.35 -51.68,0 -91.73,16.51 -120.15,49.52 -28.42,33.02 -42.64,73.36 -42.64,121.01 0,47.66 14.5,88 43.5,121.01 29,33.02 68.76,49.53 119.29,49.53zm532.28 59.43c-68.33,0 -123.74,-21.24 -166.23,-63.73 -42.49,-42.49 -63.74,-97.9 -63.74,-166.23 0,-69.48 21.82,-124.89 65.46,-166.23 43.64,-41.34 98.48,-62.01 164.51,-62.01 29,0 57.28,4.59 84.69,13.78 27.42,9.19 51.97,23.11 73.79,41.92 21.82,18.8 39.19,42.49 52.11,71.06 12.92,28.57 19.38,62.44 19.38,101.49 0,48.81 -10.48,90.3 -31.44,124.46 -24.12,37.32 -53.69,64.17 -88.86,80.68 -35.17,16.51 -71.77,24.83 -109.67,24.83zm0 -58.56c26.7,0 52.54,-5.74 77.52,-17.23 24.98,-11.49 45.79,-30.29 62.44,-56.41 15.22,-24.98 22.83,-57.28 22.83,-96.9 0,-47.09 -14.36,-87.14 -43.07,-120.15 -28.71,-33.02 -68.62,-49.53 -119.72,-49.53 -51.1,0 -91.01,16.51 -119.72,49.53 -28.71,33.02 -43.06,73.06 -43.06,120.15 0,39.04 7.61,71.06 22.68,96.03 15.07,24.98 34.88,43.64 59.43,55.99 24.55,12.35 51.39,18.52 80.68,18.52zm532.28 58.56c-68.33,0 -123.74,-21.24 -166.23,-63.73 -42.49,-42.49 -63.74,-97.9 -63.74,-166.23 0,-69.48 21.82,-124.89 65.46,-166.23 43.64,-41.34 98.48,-62.01 164.51,-62.01 29,0 57.28,4.59 84.69,13.78 27.42,9.19 51.97,23.11 73.79,41.92 21.82,18.8 39.19,42.49 52.11,71.06 12.92,28.57 19.38,62.44 19.38,101.49 0,48.81 -10.48,90.3 -31.44,124.46 -24.12,37.32 -53.69,64.17 -88.86,80.68 -35.17,16.51 -71.77,24.83 -109.67,24.83zm0 -58.56c26.7,0 52.54,-5.74 77.52,-17.23 24.98,-11.49 45.79,-30.29 62.44,-56.41 15.22,-24.98 22.83,-57.28 22.83,-96.9 0,-47.09 -14.36,-87.14 -43.07,-120.15 -28.71,-33.02 -68.62,-49.53 -119.72,-49.53 -51.1,0 -91.01,16.51 -119.72,49.53 -28.71,33.02 -43.06,73.06 -43.06,120.15 0,39.04 7.61,71.06 22.68,96.03 15.07,24.98 34.88,43.64 59.43,55.99 24.55,12.35 51.39,18.52 80.68,18.52zm750.19 55.98l-80.1 0 -155.03 -229.97 -95.6 99.05 0 130.92 -67.18 0 0 -639.08 67.18 0 0 421.17 233.41 -235.14 79.24 0 -169.68 174.85 187.76 278.2z"/>
 </g>
</svg>
